<?xml version="1.0" encoding="UTF-8"?>
<svg width="20px" height="20px" viewBox="0 0 20 20" version="1.1" xmlns="http://www.w3.org/2000/svg" xmlns:xlink="http://www.w3.org/1999/xlink">
    <!-- Generator: Sketch 48.2 (47327) - http://www.bohemiancoding.com/sketch -->
    <title>Shape</title>
    <desc>Created with Sketch.</desc>
    <defs></defs>
    <g id="Album" stroke="none" stroke-width="1" fill="none" fill-rule="evenodd" transform="translate(-33.000000, -317.000000)">
        <g id="btn-inspiration" transform="translate(28.000000, 313.000000)" fill="#FFFFFF">
            <g id="android-bulb" transform="translate(5.000000, 4.000000)">
                <g id="Icon_26_">
                    <path d="M10,6.16678571 C11.1383482,6.16678571 12.2128125,6.61433036 13.0254911,7.42700893 C13.8381696,8.23964286 14.2857143,9.31415179 14.2857143,10.4525 C14.2857143,11.2391518 14.0883036,11.9717411 13.6989286,12.6298661 C13.3266518,13.2592411 12.7865625,13.7921875 12.1370982,14.1712054 L11.4285714,14.5846875 L11.4285714,15.4050446 L11.4285714,18.5714286 L8.57142857,18.5714286 L8.57142857,15.4050446 L8.57142857,14.5846875 L7.86290179,14.1712054 C6.53758929,13.3978125 5.71428571,11.9728571 5.71428571,10.4525 C5.71428571,9.31415179 6.16183036,8.2396875 6.97450893,7.42700893 C7.7871875,6.61433036 8.86165179,6.16678571 10,6.16678571 L10,6.16678571 Z M10.9523661,0 L9.04763393,0 L9.04763393,2.85714286 L10.9523661,2.85714286 L10.9523661,0 L10.9523661,0 Z M16.7141071,2.40464286 L15,4.11924107 L16.3332143,5.4525 L18.0477679,3.73839286 L16.7141071,2.40464286 L16.7141071,2.40464286 Z M3.28589286,2.40464286 L1.9521875,3.73834821 L3.66674107,5.45245536 L5,4.11924107 L3.28589286,2.40464286 L3.28589286,2.40464286 Z M10,4.73821429 C6.85732143,4.73821429 4.28571429,7.30982143 4.28571429,10.4525 C4.28571429,12.5479464 5.42875,14.4047768 7.14285714,15.4050893 L7.14285714,20 L12.8571429,20 L12.8571429,15.4050446 C14.57125,14.4047768 15.7142857,12.5953125 15.7142857,10.4524554 C15.7142857,7.30977679 13.1426786,4.73821429 10,4.73821429 L10,4.73821429 L10,4.73821429 Z M20,9.50008929 L17.1428571,9.50008929 L17.1428571,11.4048661 L20,11.4048661 L20,9.50008929 L20,9.50008929 Z M2.85714286,9.50008929 L0,9.50008929 L0,11.4048661 L2.85714286,11.4048661 L2.85714286,9.50008929 L2.85714286,9.50008929 Z" id="Shape"></path>
                </g>
            </g>
        </g>
    </g>
</svg>