<?xml version="1.0" encoding="UTF-8" standalone="no"?>
<!-- Generator: Adobe Illustrator 18.1.1, SVG Export Plug-In . SVG Version: 6.00 Build 0)  -->

<svg
   xmlns:dc="http://purl.org/dc/elements/1.1/"
   xmlns:cc="http://creativecommons.org/ns#"
   xmlns:rdf="http://www.w3.org/1999/02/22-rdf-syntax-ns#"
   xmlns:svg="http://www.w3.org/2000/svg"
   xmlns="http://www.w3.org/2000/svg"
   xmlns:sodipodi="http://sodipodi.sourceforge.net/DTD/sodipodi-0.dtd"
   xmlns:inkscape="http://www.inkscape.org/namespaces/inkscape"
   version="1.1"
   id="Capa_1"
   x="0px"
   y="0px"
   viewBox="0 0 28.361 28.361"
   style="enable-background:new 0 0 28.361 28.361;"
   xml:space="preserve"
   sodipodi:docname="fs-icon-back.svg"
   inkscape:version="0.92.2 5c3e80d, 2017-08-06"><metadata
     id="metadata49"><rdf:RDF><cc:Work
         rdf:about=""><dc:format>image/svg+xml</dc:format><dc:type
           rdf:resource="http://purl.org/dc/dcmitype/StillImage" /><dc:title></dc:title></cc:Work></rdf:RDF></metadata><defs
     id="defs47" /><sodipodi:namedview
     pagecolor="#ffffff"
     bordercolor="#666666"
     borderopacity="1"
     objecttolerance="10"
     gridtolerance="10"
     guidetolerance="10"
     inkscape:pageopacity="0"
     inkscape:pageshadow="2"
     inkscape:window-width="1228"
     inkscape:window-height="731"
     id="namedview45"
     showgrid="false"
     inkscape:zoom="8.3212863"
     inkscape:cx="14.1805"
     inkscape:cy="14.1805"
     inkscape:window-x="24"
     inkscape:window-y="22"
     inkscape:window-maximized="0"
     inkscape:current-layer="g12" /><g
     id="g12"><g
       id="c115_arrows"><path
         d="m 16.8175,24.69275 c 0,0.868 0.665,1.57 1.491,1.57 0.819,-0.002 1.492,-0.702 1.492,-1.57 v -3.25 l 6.018,6.021 c 0.582,0.583 1.524,0.583 2.106,0 0.582,-0.582 0.582,-1.527 0,-2.109 l -5.989,-5.987 h 3.235 c 0.881,-0.002 1.591,-0.669 1.591,-1.491 0,-0.824 -0.71,-1.49 -1.591,-1.49 h -6.761 c -0.881,0 -1.59,0.665 -1.593,1.49 0.003,0.022 0.006,0.039 0.009,0.061 -0.003,0.028 -0.009,0.058 -0.009,0.087 v 6.668 z"
         id="path2"
         style="fill:#ffffff;fill-opacity:1"
         inkscape:connector-curvature="0" /><path
         d="m 2.545,27.464875 6.015,-6.021 v 3.25 c 0,0.868 0.672,1.568 1.493,1.57 0.824,0 1.49,-0.702 1.49,-1.57 l 0.002,-6.669 c 0,-0.029 -0.008,-0.059 -0.01,-0.087 0.002,-0.021 0.006,-0.038 0.008,-0.061 -0.002,-0.825 -0.712,-1.49 -1.592,-1.49 H 3.189 c -0.879,0 -1.59,0.666 -1.59,1.49 0,0.822 0.711,1.489 1.59,1.491 h 3.235 l -5.989,5.987 c -0.58,0.582 -0.58,1.527 0,2.109 0.583,0.584 1.526,0.584 2.11,10e-4 z"
         id="path4"
         style="fill:#ffffff;fill-opacity:1"
         inkscape:connector-curvature="0" /><path
         d="m 25.8175,0.89762508 -6.018,6.01700002 v -3.25 c 0,-0.865 -0.673,-1.565 -1.492,-1.568 -0.826,0 -1.491,0.703 -1.491,1.568 v 6.6709999 c 0,0.029 0.006,0.059 0.009,0.085 -0.003,0.021 -0.006,0.041 -0.009,0.062 0.003,0.826 0.712,1.491 1.592,1.491 h 6.761 c 0.881,0 1.591,-0.665 1.591,-1.491 0,-0.8209999 -0.71,-1.4899999 -1.591,-1.4919999 h -3.235 l 5.989,-5.987 c 0.582,-0.581 0.582,-1.524 0,-2.10500002 -0.582,-0.586 -1.524,-0.586 -2.106,-0.001 z"
         id="path6"
         style="fill:#ffffff;fill-opacity:1"
         inkscape:connector-curvature="0" /><path
         d="M 6.424,8.99075 H 3.19 c -0.879,0.002 -1.59,0.671 -1.59,1.492 0,0.826 0.711,1.491 1.59,1.491 h 6.761 c 0.88,0 1.59,-0.665 1.592,-1.491 -0.002,-0.021 -0.006,-0.041 -0.008,-0.062 0.002,-0.026 0.01,-0.055 0.01,-0.085 l -0.002,-6.672 c 0,-0.865 -0.666,-1.568 -1.49,-1.568 -0.821,0.003 -1.493,0.703 -1.493,1.568 v 3.25 l -6.015,-6.016 c -0.584,-0.585 -1.527,-0.585 -2.11,0 -0.58,0.581 -0.58,1.524 0,2.105 z"
         id="path8"
         style="fill:#ffffff;fill-opacity:1"
         inkscape:connector-curvature="0" /></g><g
       id="Capa_1_253_" /></g><g
     id="g14" /><g
     id="g16" /><g
     id="g18" /><g
     id="g20" /><g
     id="g22" /><g
     id="g24" /><g
     id="g26" /><g
     id="g28" /><g
     id="g30" /><g
     id="g32" /><g
     id="g34" /><g
     id="g36" /><g
     id="g38" /><g
     id="g40" /><g
     id="g42" /></svg>